<svg xmlns="http://www.w3.org/2000/svg" xmlns:xlink="http://www.w3.org/1999/xlink" width="500" zoomAndPan="magnify" viewBox="0 0 375 374.999991" height="500" preserveAspectRatio="xMidYMid meet" version="1.0"><defs><g/></defs><g fill="#d96440" fill-opacity="1"><g transform="translate(41.367189, 309.512756)"><g><path d="M 199.140625 -93.59375 L 210.296875 -114.671875 L 210.296875 0 L 199.140625 0 Z M 221.453125 -136.375 L 232.609375 -157.453125 L 232.609375 0 L 221.453125 0 Z M 243.765625 -178.53125 L 254.921875 -199.75 L 254.921875 0 L 243.765625 0 Z M 168.921875 -98.875 L 162.5625 -110.5 L 239.421875 -256.625 L 251.984375 -256.625 Z M 156.046875 -123.203125 L 149.546875 -134.984375 L 214.015625 -256.625 L 226.71875 -256.625 Z M 81.359375 -113.4375 L 92.515625 -92.359375 L 92.515625 0 L 81.359375 0 Z M 59.046875 -155.890625 L 70.203125 -134.828125 L 70.203125 0 L 59.046875 0 Z M 36.734375 -198.359375 L 47.890625 -177.125 L 47.890625 0 L 36.734375 0 Z M 126.921875 -66.953125 L 114.359375 -66.953125 L 25.5625 -235.390625 L 25.5625 0 L 14.40625 0 L 14.40625 -256.625 L 26.96875 -256.625 Z M 152.171875 -66.953125 L 139.46875 -66.953125 L 39.671875 -256.625 L 52.375 -256.625 Z M 266.078125 -235.390625 L 177.28125 -66.953125 L 164.578125 -66.953125 L 64.9375 -256.625 L 77.484375 -256.625 L 171.078125 -78.71875 L 264.53125 -256.625 L 277.234375 -256.625 L 277.234375 0 L 266.078125 0 Z M 266.078125 -235.390625 "/></g></g></g></svg>